<?xml version="1.0" encoding="utf-8"?>
<!-- Generator: Adobe Illustrator 16.0.0, SVG Export Plug-In . SVG Version: 6.00 Build 0)  -->
<!DOCTYPE svg PUBLIC "-//W3C//DTD SVG 1.1//EN" "http://www.w3.org/Graphics/SVG/1.1/DTD/svg11.dtd">
<svg version="1.1" id="Capa_1" xmlns="http://www.w3.org/2000/svg" xmlns:xlink="http://www.w3.org/1999/xlink" x="0px" y="0px"
	 width="96px" height="96px" viewBox="0 0 96 96" enable-background="new 0 0 96 96" xml:space="preserve">
<path d="M45.667,67.948l-2.608-2.608l36.639-28.783c0.985-0.774,1.79-2.3,1.871-3.55l1.109-16.94
	c0.05-0.758-0.219-1.489-0.736-2.007c-0.519-0.518-1.25-0.786-2.008-0.737l-16.939,1.109c-1.251,0.082-2.777,0.887-3.551,1.871
	L30.661,52.941l-2.609-2.608c-1.256-1.256-3.299-1.257-4.556,0l-2.834,2.834c-1.256,1.256-1.256,3.3,0,4.556l5.542,5.543
	l-4.949,4.948c-2.533-0.458-5.242,0.288-7.196,2.242c-3.167,3.167-3.167,8.319,0,11.485c3.166,3.166,8.318,3.167,11.485,0
	c1.955-1.954,2.7-4.664,2.242-7.196l4.949-4.949l5.542,5.542c1.257,1.257,3.3,1.256,4.556,0l2.834-2.834
	C46.924,71.248,46.923,69.204,45.667,67.948z"/>
</svg>
