<?xml version="1.0" encoding="utf-8"?>
<!-- Generator: Adobe Illustrator 16.0.0, SVG Export Plug-In . SVG Version: 6.00 Build 0)  -->
<!DOCTYPE svg PUBLIC "-//W3C//DTD SVG 1.1//EN" "http://www.w3.org/Graphics/SVG/1.1/DTD/svg11.dtd">
<svg version="1.1" id="Capa_1" xmlns="http://www.w3.org/2000/svg" xmlns:xlink="http://www.w3.org/1999/xlink" x="0px" y="0px"
	 width="96px" height="96px" viewBox="0 0 96 96" enable-background="new 0 0 96 96" xml:space="preserve">
<path d="M80.252,39.283c-0.494-1.588-2.18-2.477-3.772-1.982l-8.389,2.784c0,0-2.342-1.035-4.873-3.896
	c-2.537-2.864-7.292-9.809-13.933-9.565l-12.578,0.345c0,0-1.626,0.049-2.496,1.027l-7.208,8.224
	c-0.814,0.929-0.93,2.325-0.197,3.387c0.864,1.257,2.585,1.571,3.839,0.708l7.5-5.173l6.14-0.003
	c-2.672,3.836-7.723,12.119-8.464,14.304l-4.358,12.856l-14.162,9.261c-1.566,1.022-2.15,3.081-1.292,4.796
	c0.922,1.845,3.165,2.585,5.007,1.661l16.85-8.443c0.727-0.364,1.351-0.959,1.749-1.741l5.019-9.905l4.765,5.995l-5.845,12.233
	c-0.785,1.64-0.276,3.65,1.273,4.701c1.708,1.157,4.03,0.713,5.188-0.995l9.581-14.118c0.944-1.401,1.047-3.286,0.098-4.815
	l-5.42-8.735c1.366-2.414,3.181-5.161,5.032-7.779l5.914,3.792l0.598,0.383c1.117,0.713,2.588,0.767,3.784,0.02l9.373-5.875
	C80.104,42.024,80.667,40.619,80.252,39.283z"/>
<path d="M63.556,14.5c4.533,0,8.207,3.673,8.207,8.207c0,4.531-3.674,8.208-8.207,8.208c-4.529,0-8.206-3.676-8.206-8.208
	C55.35,18.173,59.026,14.5,63.556,14.5z"/>
</svg>
