<?xml version="1.0" encoding="utf-8"?>
<!-- Generator: Adobe Illustrator 16.0.0, SVG Export Plug-In . SVG Version: 6.00 Build 0)  -->
<!DOCTYPE svg PUBLIC "-//W3C//DTD SVG 1.1//EN" "http://www.w3.org/Graphics/SVG/1.1/DTD/svg11.dtd">
<svg version="1.1" id="Capa_1" xmlns="http://www.w3.org/2000/svg" xmlns:xlink="http://www.w3.org/1999/xlink" x="0px" y="0px"
	 width="96px" height="96px" viewBox="0 0 96 96" enable-background="new 0 0 96 96" xml:space="preserve">
<g>
	<g>
		<polygon points="59.783,48.143 56.294,45.962 58.277,42.232 54.163,42.089 54.016,37.867 50.383,39.799 48.143,36.217 
			45.962,39.706 42.232,37.724 42.089,41.836 37.867,41.983 39.799,45.617 36.217,47.856 39.706,50.038 37.724,53.768 
			41.836,53.911 41.983,58.134 45.617,56.201 47.856,59.783 50.038,56.295 53.768,58.277 53.911,54.163 58.134,54.016 
			56.201,50.383 		"/>
	</g>
</g>
<g>
	<g>
		<path d="M83,48.144l-10.455-6.536l5.838-10.983L66.06,30.193l-0.436-12.433l-10.888,5.788L48.144,13l-6.536,10.456l-10.983-5.839
			L30.193,29.94l-12.433,0.435l5.788,10.889L13,47.856l10.456,6.537l-5.838,10.983l12.323,0.431l0.435,12.432l10.889-5.787
			L47.856,83l6.537-10.455l10.982,5.838l0.432-12.323l12.432-0.436l-5.787-10.888L83,48.144z M61.618,51.834l3.216,6.051
			l-6.958,0.243l-0.239,6.851L51.49,61.71l-3.634,5.812l-3.689-5.903l-6.053,3.216l-0.243-6.958l-6.85-0.239l3.268-6.146
			l-5.812-3.634l5.903-3.689l-3.216-6.053l6.958-0.243l0.24-6.85l6.147,3.268l3.632-5.812l3.691,5.904l6.051-3.217l0.243,6.959
			l6.851,0.239l-3.269,6.147l5.812,3.632L61.618,51.834z"/>
	</g>
</g>
</svg>
