<?xml version="1.0" encoding="utf-8"?>
<!-- Generator: Adobe Illustrator 16.0.0, SVG Export Plug-In . SVG Version: 6.00 Build 0)  -->
<!DOCTYPE svg PUBLIC "-//W3C//DTD SVG 1.1//EN" "http://www.w3.org/Graphics/SVG/1.1/DTD/svg11.dtd">
<svg version="1.1" id="Capa_1" xmlns="http://www.w3.org/2000/svg" xmlns:xlink="http://www.w3.org/1999/xlink" x="0px" y="0px"
	 width="96px" height="96px" viewBox="0 0 96 96" enable-background="new 0 0 96 96" xml:space="preserve">
<path d="M76.85,20.562l-28.244-8.473c-0.395-0.119-0.815-0.119-1.211,0l-28.242,8.473c-0.892,0.268-1.502,1.089-1.502,2.021V53.65
	c0,4.039,1.636,8.174,4.862,12.295c2.464,3.142,5.873,6.3,10.132,9.382c7.154,5.182,14.2,8.356,14.497,8.489
	C47.413,83.939,47.706,84,48,84s0.589-0.061,0.861-0.184c0.299-0.133,7.34-3.31,14.496-8.49c4.26-3.082,7.668-6.24,10.133-9.383
	c3.226-4.12,4.859-8.256,4.859-12.295V22.582C78.352,21.65,77.74,20.829,76.85,20.562z M65.681,40.867l-8.894,7.703l2.666,11.461
	c0.185,0.799-0.681,1.422-1.375,0.997L48,54.957l-10.074,6.071c-0.702,0.422-1.563-0.2-1.377-0.997l2.664-11.461l-8.894-7.705
	c-0.617-0.536-0.288-1.551,0.526-1.621l11.724-1.006l4.581-10.836c0.317-0.754,1.382-0.754,1.701,0l4.576,10.838l11.728,1.009
	C65.966,39.319,66.296,40.332,65.681,40.867z"/>
</svg>
